<?xml version="1.0" encoding="UTF-8"?>
<svg id="Layer_2" data-name="Layer 2" xmlns="http://www.w3.org/2000/svg" viewBox="0 0 78.97 76.06">
  <defs>
    <style>
      .cls-1 {
        fill: #11110f;
      }
    </style>
  </defs>
  <g id="Layer_1-2" data-name="Layer 1">
    <g>
      <path class="cls-1" d="M76.02,24.67c-1.97-4.43-4.72-8.3-8.25-11.6-.39-.37-.8-.72-1.21-1.07l-13.43,18.06c.31.61.6,1.23.84,1.9.8,2.17,1.2,4.62,1.2,7.35s-.4,5.18-1.2,7.35c-.8,2.17-1.92,4-3.35,5.5-1.43,1.5-3.1,2.65-5,3.45-1.9.8-3.95,1.2-6.15,1.2-1.96,0-3.79-.34-5.51-.97l-12.29,16.53c.67.29,1.36.57,2.06.84,4.83,1.8,10.08,2.7,15.74,2.7s11-.9,15.79-2.7c4.8-1.8,8.96-4.35,12.49-7.65,3.53-3.3,6.28-7.18,8.25-11.64,1.96-4.46,2.95-9.33,2.95-14.59s-.98-10.21-2.95-14.64Z"/>
      <path class="cls-1" d="M23.79,39.31c0-2.73.4-5.18,1.2-7.35.8-2.16,1.91-4,3.35-5.5,1.43-1.5,3.1-2.65,5-3.45,1.9-.8,3.95-1.2,6.15-1.2.87,0,1.71.08,2.53.21l12.53-16.85c-4.6-1.62-9.62-2.44-15.06-2.44s-10.91.9-15.74,2.7c-4.83,1.8-9.01,4.35-12.54,7.65-3.53,3.3-6.28,7.16-8.25,11.6-1.97,4.43-2.95,9.31-2.95,14.64s.98,10.13,2.95,14.59c1.79,4.08,4.25,7.66,7.35,10.77l14.3-19.24c-.53-1.85-.82-3.89-.82-6.12Z"/>
      <path class="cls-1" d="M66.56,12l.78-1.05c2.26-3.04,1.63-7.34-1.41-9.6s-7.34-1.63-9.6,1.41l-1.79,2.4c.24.09.49.16.73.25,4.26,1.6,8.02,3.79,11.29,6.57Z"/>
      <path class="cls-1" d="M45.63,23.02c-1.15-.48-2.36-.8-3.62-.99l-17.41,23.41c.12.41.24.83.38,1.22.8,2.17,1.91,4,3.35,5.5,1.43,1.5,3.1,2.65,5,3.45.21.09.42.15.64.23l19.16-25.77c-.69-1.35-1.52-2.56-2.5-3.6-1.43-1.5-3.1-2.65-5-3.45Z"/>
      <path class="cls-1" d="M10.3,64.67l-.32.44c-2.26,3.04-1.63,7.34,1.41,9.6s7.34,1.63,9.6-1.41l.69-.93c-3.97-1.72-7.47-3.99-10.49-6.81-.31-.29-.6-.58-.89-.88Z"/>
    </g>
  </g>
</svg>