<?xml version="1.0" encoding="UTF-8"?>
<svg id="Layer_2" data-name="Layer 2" xmlns="http://www.w3.org/2000/svg" viewBox="0 0 634.51 175.89">
  <defs>
    <style>
      .cls-1 {
        fill: #11110f;
      }

      .cls-2 {
        fill: #e6e7e8;
      }
    </style>
  </defs>
  <g id="Layer_1-2" data-name="Layer 1">
    <g>
      <rect class="cls-1" x="0" y="0" width="634.51" height="175.89" rx="87.95" ry="87.95"/>
      <g>
        <path class="cls-2" d="M165.34,74.58c-1.97-4.43-4.72-8.3-8.25-11.6-.39-.37-.8-.72-1.21-1.07l-13.43,18.06c.31.61.6,1.23.84,1.9.8,2.17,1.2,4.62,1.2,7.35s-.4,5.18-1.2,7.35c-.8,2.17-1.92,4-3.35,5.5-1.43,1.5-3.1,2.65-5,3.45-1.9.8-3.95,1.2-6.15,1.2-1.96,0-3.79-.34-5.51-.97l-12.29,16.53c.67.29,1.36.57,2.06.84,4.83,1.8,10.08,2.7,15.74,2.7s11-.9,15.79-2.7c4.8-1.8,8.96-4.35,12.49-7.65,3.53-3.3,6.28-7.18,8.25-11.64,1.96-4.46,2.95-9.33,2.95-14.59s-.98-10.21-2.95-14.64Z"/>
        <path class="cls-2" d="M113.11,89.23c0-2.73.4-5.18,1.2-7.35.8-2.16,1.91-4,3.35-5.5,1.43-1.5,3.1-2.65,5-3.45,1.9-.8,3.95-1.2,6.15-1.2.87,0,1.71.08,2.53.21l12.53-16.85c-4.6-1.62-9.62-2.44-15.06-2.44s-10.91.9-15.74,2.7c-4.83,1.8-9.01,4.35-12.54,7.65-3.53,3.3-6.28,7.16-8.25,11.6-1.97,4.43-2.95,9.31-2.95,14.64s.98,10.13,2.95,14.59c1.79,4.08,4.25,7.66,7.35,10.77l14.3-19.24c-.53-1.85-.82-3.89-.82-6.12Z"/>
        <path class="cls-2" d="M155.88,61.91l.78-1.05c2.26-3.04,1.63-7.34-1.41-9.6s-7.34-1.63-9.6,1.41l-1.79,2.4c.24.09.49.16.73.25,4.26,1.6,8.02,3.79,11.29,6.57Z"/>
        <path class="cls-2" d="M134.95,72.93c-1.15-.48-2.36-.8-3.62-.99l-17.41,23.41c.12.41.24.83.38,1.22.8,2.17,1.91,4,3.35,5.5,1.43,1.5,3.1,2.65,5,3.45.21.09.42.15.64.23l19.16-25.77c-.69-1.35-1.52-2.56-2.5-3.6-1.43-1.5-3.1-2.65-5-3.45Z"/>
        <path class="cls-2" d="M99.62,114.59l-.32.44c-2.26,3.04-1.63,7.34,1.41,9.6s7.34,1.63,9.6-1.41l.69-.93c-3.97-1.72-7.47-3.99-10.49-6.81-.31-.29-.6-.58-.89-.88Z"/>
      </g>
      <rect class="cls-2" x="527.79" y="51.86" width="20.94" height="76.4"/>
      <g>
        <path class="cls-2" d="M191.29,125.57V54.31h24.74c8.89,0,15.83,2.07,20.82,6.21,4.99,4.14,7.48,9.94,7.48,17.41,0,4.95-1.12,9.2-3.36,12.72-2.24,3.53-5.48,6.25-9.72,8.14-4.24,1.9-9.32,2.85-15.22,2.85h-22.8l1.53-1.63v25.55h-3.46ZM194.75,100.02l-1.53-1.53h23.01c8.01,0,14.13-1.8,18.38-5.39,4.24-3.6,6.36-8.65,6.36-15.17s-2.12-11.55-6.36-15.12c-4.24-3.56-10.37-5.35-18.38-5.35h-23.01l1.53-1.63v44.18ZM241.38,125.57l-18.53-25.86h3.97l18.63,25.86h-4.07Z"/>
        <path class="cls-2" d="M274.56,125.57V54.31h46.73v3.16h-43.27v64.95h44.69v3.16h-48.15ZM277.41,90.96v-3.16h39.3v3.16h-39.3Z"/>
        <path class="cls-2" d="M352.75,125.57V54.31h2.85l52.33,67.19h-1.73V54.31h3.46v71.26h-2.85l-52.33-67.19h1.73v67.19h-3.46Z"/>
        <path class="cls-2" d="M475.42,125.98c-5.23,0-10.08-.9-14.56-2.7-4.48-1.8-8.38-4.33-11.71-7.58-3.33-3.26-5.9-7.08-7.74-11.45-1.83-4.38-2.75-9.14-2.75-14.3s.92-9.93,2.75-14.3c1.83-4.38,4.41-8.19,7.74-11.45,3.32-3.26,7.23-5.78,11.71-7.58,4.48-1.8,9.37-2.7,14.66-2.7s10.08.9,14.56,2.7c4.48,1.8,8.36,4.33,11.66,7.58,3.29,3.26,5.87,7.06,7.74,11.4,1.87,4.34,2.8,9.13,2.8,14.35s-.93,9.93-2.8,14.3c-1.87,4.38-4.45,8.2-7.74,11.45-3.29,3.26-7.18,5.79-11.66,7.58-4.48,1.8-9.37,2.7-14.66,2.7ZM475.42,122.82c4.75,0,9.16-.81,13.23-2.44,4.07-1.63,7.62-3.94,10.64-6.92,3.02-2.99,5.36-6.46,7.02-10.43,1.66-3.97,2.49-8.33,2.49-13.08s-.83-9.11-2.49-13.08c-1.66-3.97-4.01-7.45-7.02-10.43-3.02-2.99-6.57-5.29-10.64-6.92-4.07-1.63-8.48-2.44-13.23-2.44s-9.06.81-13.13,2.44c-4.07,1.63-7.62,3.94-10.64,6.92-3.02,2.99-5.36,6.48-7.02,10.49-1.66,4-2.49,8.35-2.49,13.03s.83,9.11,2.49,13.08c1.66,3.97,4,7.45,7.02,10.43,3.02,2.99,6.57,5.29,10.64,6.92,4.07,1.63,8.45,2.44,13.13,2.44Z"/>
      </g>
      <g>
        <path class="cls-1" d="M542.44,115.34c0,.67-.08,1.32-.23,1.95-.15.63-.35,1.14-.6,1.55l-1.97-.87c.22-.38.4-.81.53-1.28.13-.47.2-.93.2-1.37,0-.26-.02-.46-.05-.61s-.08-.26-.15-.33-.14-.1-.23-.1c-.14,0-.26.08-.34.24s-.16.37-.21.64c-.06.26-.12.55-.18.87s-.15.63-.26.95c-.11.32-.25.61-.42.87s-.41.48-.69.64c-.29.16-.64.24-1.07.24-.5,0-.95-.14-1.36-.42-.41-.28-.74-.69-.98-1.25-.24-.55-.37-1.24-.37-2.07,0-.54.06-1.08.17-1.6.11-.53.29-1,.53-1.42l1.96.81c-.2.4-.35.78-.45,1.15-.1.37-.15.73-.15,1.08,0,.26.02.47.07.62.05.15.11.26.18.33.08.06.16.1.25.1.14,0,.25-.08.33-.24.08-.16.15-.37.2-.64.05-.26.11-.55.17-.87.06-.32.15-.63.25-.95.11-.31.25-.6.42-.86s.4-.48.69-.64c.28-.16.63-.24,1.05-.24.49,0,.94.14,1.35.42.41.28.74.69.99,1.24.25.55.37,1.24.37,2.07Z"/>
        <path class="cls-1" d="M542.26,106.88h-5.93v2.35h-2.1v-7.4h2.1v2.35h5.93v2.7Z"/>
        <path class="cls-1" d="M542.44,95.17c0,1.23-.33,2.19-1,2.88-.67.69-1.6,1.03-2.8,1.03h-4.41v-2.7h4.33c.61,0,1.04-.11,1.3-.33.26-.22.38-.52.38-.89s-.13-.68-.38-.9c-.26-.22-.69-.33-1.3-.33h-4.33v-2.66h4.41c1.2,0,2.13.34,2.8,1.03.66.69,1,1.65,1,2.88Z"/>
        <path class="cls-1" d="M542.26,87.73h-8.02v-3.95c0-.89.16-1.68.49-2.36.32-.68.79-1.21,1.38-1.59s1.31-.57,2.14-.57,1.54.19,2.14.57,1.06.91,1.39,1.59c.32.68.49,1.47.49,2.36v3.95ZM540.15,85.03v-1.13c0-.38-.07-.72-.22-1-.15-.29-.36-.51-.65-.67-.29-.16-.63-.24-1.04-.24s-.76.08-1.04.24c-.28.16-.5.38-.64.67-.15.29-.22.62-.22,1v1.13h3.8Z"/>
        <path class="cls-1" d="M542.26,75.97h-8.02v-2.7h8.02v2.7Z"/>
        <path class="cls-1" d="M542.44,65.47c0,.65-.1,1.25-.31,1.81s-.5,1.03-.88,1.44-.82.72-1.34.95c-.51.23-1.07.34-1.67.34s-1.17-.11-1.68-.34c-.51-.23-.95-.54-1.33-.95-.38-.4-.67-.88-.88-1.44-.21-.55-.31-1.16-.31-1.81s.1-1.26.31-1.81c.21-.55.5-1.03.88-1.43.38-.4.82-.72,1.33-.95.51-.23,1.07-.34,1.68-.34s1.16.11,1.67.34c.51.23.96.54,1.34.95s.67.88.88,1.43.31,1.15.31,1.81ZM540.26,65.47c0-.25-.05-.49-.14-.71-.09-.22-.22-.41-.4-.57-.17-.16-.38-.29-.63-.38s-.53-.14-.84-.14-.59.05-.84.14c-.25.09-.46.22-.63.38s-.3.35-.4.57c-.09.22-.14.45-.14.71s.05.49.14.7.22.41.4.57c.17.16.38.29.63.38.25.09.53.14.84.14s.59-.05.84-.14.46-.22.63-.38c.17-.16.3-.36.4-.57s.14-.45.14-.7Z"/>
      </g>
    </g>
  </g>
</svg>