<?xml version="1.0" encoding="UTF-8"?>
<svg id="Layer_2" data-name="Layer 2" xmlns="http://www.w3.org/2000/svg" viewBox="0 0 291.43 280.72">
  <defs>
    <style>
      .cls-1 {
        fill: #e6e7e8;
      }
    </style>
  </defs>
  <g id="Layer_1-2" data-name="Layer 1">
    <g>
      <path class="cls-1" d="M280.55,91.03c-7.26-16.35-17.4-30.62-30.43-42.79-1.45-1.36-2.95-2.67-4.46-3.96l-49.56,66.66c1.14,2.24,2.2,4.55,3.11,7.02,2.95,8,4.43,17.03,4.43,27.12s-1.48,19.12-4.43,27.11c-2.95,8-7.07,14.76-12.36,20.29-5.29,5.53-11.44,9.78-18.45,12.73-7.01,2.95-14.57,4.43-22.69,4.43-7.23,0-13.99-1.24-20.34-3.58l-45.36,61c2.49,1.08,5.01,2.12,7.6,3.08,17.83,6.64,37.2,9.96,58.1,9.96s40.58-3.32,58.29-9.96c17.71-6.64,33.07-16.05,46.11-28.22,13.03-12.17,23.18-26.5,30.43-42.98,7.25-16.47,10.88-34.43,10.88-53.86s-3.63-37.69-10.88-54.04Z"/>
      <path class="cls-1" d="M87.8,145.08c0-10.08,1.47-19.12,4.43-27.12,2.95-7.99,7.07-14.76,12.36-20.29,5.28-5.53,11.43-9.78,18.44-12.73,7.01-2.95,14.57-4.43,22.69-4.43,3.21,0,6.3.3,9.34.76l46.25-62.2c-16.98-5.99-35.5-9.02-55.58-9.02s-40.27,3.32-58.1,9.96c-17.83,6.64-33.26,16.05-46.3,28.22-13.04,12.17-23.18,26.44-30.43,42.79C3.63,107.39,0,125.4,0,145.08s3.63,37.39,10.88,53.86c6.62,15.05,15.69,28.28,27.14,39.74l52.79-71c-1.97-6.84-3.01-14.35-3.01-22.6Z"/>
      <path class="cls-1" d="M245.66,44.28l2.87-3.86c8.34-11.22,6.01-27.08-5.21-35.42s-27.08-6.01-35.42,5.21l-6.59,8.87c.9.32,1.81.61,2.7.94,15.73,5.9,29.61,14,41.65,24.26Z"/>
      <path class="cls-1" d="M168.4,84.95c-4.24-1.78-8.71-2.96-13.35-3.67l-64.24,86.4c.44,1.53.88,3.06,1.41,4.52,2.95,8,7.07,14.76,12.36,20.29,5.28,5.53,11.43,9.78,18.44,12.73.77.32,1.56.56,2.34.85l70.72-95.11c-2.54-4.99-5.59-9.45-9.24-13.27-5.29-5.53-11.44-9.78-18.45-12.73Z"/>
      <path class="cls-1" d="M38.02,238.68l-1.2,1.61c-8.34,11.22-6.01,27.08,5.21,35.42,11.22,8.34,27.08,6.01,35.42-5.21l2.56-3.45c-14.65-6.36-27.56-14.73-38.7-25.14-1.13-1.06-2.21-2.15-3.3-3.24Z"/>
    </g>
  </g>
</svg>